<svg width="48" height="48" version="1.1" viewBox="0 0 12.7 12.7" xmlns="http://www.w3.org/2000/svg">
 <g transform="translate(.2163 .9196)">
  <path d="m8.014 0.9701v1.207h1.552v2.587l1.207 1.207h-1.207l-1.38 1.38h-1.38l-1.207 1.207v-1.207h-1.552v-2.415l-1.207-1.207h1.207v-1.552h2.759z" color="#000000" fill="#fff" stroke-width=".2748" style="-inkscape-stroke:none"/>
  <path d="m8.702-0.7252-1.213 1.215-0.9998 0.9976h-2.787l-1.725 1.725v1.554h-1.725l1.725 1.725v2.931h2.07v1.725l1.724-1.725h1.38l2.711-2.717h2.607l-2.213-2.213v-3.004h-1.554zm-0.688 1.695v1.207h1.552v2.587l1.207 1.207h-1.207l-1.38 1.38h-1.38l-1.207 1.207v-1.207h-1.552v-2.415l-1.207-1.207h1.207v-1.552h2.759zm0.6565 2.415-0.6899 0.4664v1.603h0.6899zm-1.897 0.4664-0.6899-0.4664v2.07h0.6899z" color="#000000" fill="#7137c8" stroke-width="1.038" style="-inkscape-stroke:none"/>
 </g>
</svg>
